<svg xmlns="http://www.w3.org/2000/svg" viewBox="0 0 1200 630" width="1200" height="630">
  <defs>
    <linearGradient id="vio" x1="0" y1="0" x2="1" y2="1">
      <stop offset="0" stop-color="#e9d5ff"/>
      <stop offset="0.45" stop-color="#a855f7"/>
      <stop offset="1" stop-color="#7c3aed"/>
    </linearGradient>
    <radialGradient id="glow" cx="50%" cy="30%" r="70%">
      <stop offset="0" stop-color="#221140" stop-opacity="0.95"/>
      <stop offset="55%" stop-color="#0c0c0c" stop-opacity="0.9"/>
      <stop offset="100%" stop-color="#050505"/>
    </radialGradient>
    <radialGradient id="disc" cx="50%" cy="40%" r="65%">
      <stop offset="0" stop-color="#1a1a1a"/>
      <stop offset="100%" stop-color="#0a0a0a"/>
    </radialGradient>
  </defs>

  <rect width="1200" height="630" fill="url(#glow)"/>
  <rect x="24" y="24" width="1152" height="582" rx="22" fill="none" stroke="url(#vio)" stroke-width="2" opacity="0.5"/>

  <!-- crest medallion -->
  <g transform="translate(600,178)">
    <circle r="118" fill="url(#disc)" stroke="url(#vio)" stroke-width="3"/>
    <circle r="104" fill="none" stroke="url(#vio)" stroke-width="1" opacity="0.4"/>
    <g transform="translate(0,-6)">
      <path d="M-46 14 L-46 -22 L-22 0 L0 -34 L22 0 L46 -22 L46 14 Z" fill="url(#vio)"/>
      <rect x="-48" y="16" width="96" height="14" rx="4" fill="url(#vio)"/>
      <circle cx="-46" cy="-26" r="5.5" fill="url(#vio)"/>
      <circle cx="0" cy="-40" r="6.5" fill="url(#vio)"/>
      <circle cx="46" cy="-26" r="5.5" fill="url(#vio)"/>
    </g>
    <text x="0" y="78" text-anchor="middle" font-family="Georgia, 'Times New Roman', serif" font-size="56" font-weight="700" fill="url(#vio)" letter-spacing="2">MG</text>
  </g>

  <text x="600" y="400" text-anchor="middle" font-family="Georgia, 'Times New Roman', serif" font-size="92" font-weight="700" fill="url(#vio)" letter-spacing="10">MONKEYGOD</text>
  <text x="600" y="452" text-anchor="middle" font-family="Arial, Helvetica, sans-serif" font-size="26" font-weight="600" fill="#e6e6e6" letter-spacing="7">THE VAULT &#183; UNLIMITED ACCESS</text>
  <text x="600" y="552" text-anchor="middle" font-family="Arial, Helvetica, sans-serif" font-size="20" font-weight="700" fill="#9a86c4" letter-spacing="5">MONKEYAPP &amp; OMEGLE &#183; INSTANT DELIVERY &#183; MONKEYGOD.US</text>
</svg>
